<svg width="61" height="61" viewBox="0 0 61 61" fill="none" xmlns="http://www.w3.org/2000/svg">
<circle cx="30.5" cy="30.0801" r="30" fill="black"/>
<path d="M21.27 38.8301C20.6942 38.8301 20.2138 38.6376 19.8288 38.2526C19.4438 37.8676 19.2508 37.3867 19.25 36.8101V23.3501C19.25 22.7742 19.4429 22.2938 19.8288 21.9088C20.2146 21.5238 20.6946 21.3309 21.2687 21.3301H39.7313C40.3062 21.3301 40.7863 21.523 41.1713 21.9088C41.5563 22.2947 41.7492 22.7751 41.75 23.3501V36.8113C41.75 37.3863 41.5571 37.8667 41.1713 38.2526C40.7854 38.6384 40.3054 38.8309 39.7313 38.8301H21.27ZM30.5 30.2251L40.5 23.6863L40.115 22.5801L30.5 28.8301L20.885 22.5801L20.5 23.6863L30.5 30.2251Z" fill="white"/>
</svg>
