<svg width="61" height="61" viewBox="0 0 61 61" fill="none" xmlns="http://www.w3.org/2000/svg">
<circle cx="30.5" cy="30.0801" r="30" fill="black"/>
<path fill-rule="evenodd" clip-rule="evenodd" d="M19.25 28.8301C19.25 24.1163 19.25 21.7588 20.715 20.2951C22.1788 18.8301 24.5363 18.8301 29.25 18.8301H31.75C36.4637 18.8301 38.8212 18.8301 40.285 20.2951C41.75 21.7588 41.75 24.1163 41.75 28.8301V31.3301C41.75 36.0438 41.75 38.4013 40.285 39.8651C38.8212 41.3301 36.4637 41.3301 31.75 41.3301H29.25C24.5363 41.3301 22.1788 41.3301 20.715 39.8651C19.25 38.4013 19.25 36.0438 19.25 31.3301V28.8301ZM38 24.4551C38 24.9524 37.8025 25.4293 37.4508 25.7809C37.0992 26.1325 36.6223 26.3301 36.125 26.3301C35.6277 26.3301 35.1508 26.1325 34.7992 25.7809C34.4475 25.4293 34.25 24.9524 34.25 24.4551C34.25 23.9578 34.4475 23.4809 34.7992 23.1293C35.1508 22.7776 35.6277 22.5801 36.125 22.5801C36.6223 22.5801 37.0992 22.7776 37.4508 23.1293C37.8025 23.4809 38 23.9578 38 24.4551ZM33 31.3301C33 31.9931 32.7366 32.629 32.2678 33.0978C31.7989 33.5667 31.163 33.8301 30.5 33.8301C29.837 33.8301 29.2011 33.5667 28.7322 33.0978C28.2634 32.629 28 31.9931 28 31.3301C28 30.667 28.2634 30.0312 28.7322 29.5623C29.2011 29.0935 29.837 28.8301 30.5 28.8301C31.163 28.8301 31.7989 29.0935 32.2678 29.5623C32.7366 30.0312 33 30.667 33 31.3301ZM35.5 31.3301C35.5 32.6562 34.9732 33.9279 34.0355 34.8656C33.0979 35.8033 31.8261 36.3301 30.5 36.3301C29.1739 36.3301 27.9021 35.8033 26.9645 34.8656C26.0268 33.9279 25.5 32.6562 25.5 31.3301C25.5 30.004 26.0268 28.7322 26.9645 27.7945C27.9021 26.8569 29.1739 26.3301 30.5 26.3301C31.8261 26.3301 33.0979 26.8569 34.0355 27.7945C34.9732 28.7322 35.5 30.004 35.5 31.3301Z" fill="white"/>
</svg>
