<svg width="52" height="52" viewBox="0 0 52 52" fill="none" xmlns="http://www.w3.org/2000/svg">
<path d="M25.9999 37.5917C27.9504 37.5917 29.5316 36.0105 29.5316 34.06C29.5316 32.1095 27.9504 30.5283 25.9999 30.5283C24.0494 30.5283 22.4683 32.1095 22.4683 34.06C22.4683 36.0105 24.0494 37.5917 25.9999 37.5917Z" fill="#292D32"/>
<path d="M39.6066 20.6485V17.9402C39.6066 12.0902 38.1983 4.3335 25.9999 4.3335C13.8016 4.3335 12.3933 12.0902 12.3933 17.9402V20.6485C6.32659 21.4068 4.33325 24.4835 4.33325 32.0452V36.0752C4.33325 44.9585 7.04159 47.6668 15.9249 47.6668H36.0749C44.9583 47.6668 47.6666 44.9585 47.6666 36.0752V32.0452C47.6666 24.4835 45.6733 21.4068 39.6066 20.6485ZM25.9999 40.6035C22.3816 40.6035 19.4566 37.6568 19.4566 34.0602C19.4566 30.4418 22.4033 27.5168 25.9999 27.5168C29.5966 27.5168 32.5433 30.4635 32.5433 34.0602C32.5433 37.6785 29.6183 40.6035 25.9999 40.6035ZM15.9249 20.4535C15.7516 20.4535 15.5999 20.4535 15.4266 20.4535V17.9402C15.4266 11.5918 17.2249 7.36683 25.9999 7.36683C34.7749 7.36683 36.5732 11.5918 36.5732 17.9402V20.4752C36.3999 20.4752 36.2483 20.4752 36.0749 20.4752H15.9249V20.4535Z" fill="#292D32"/>
</svg>
