<svg width="184" height="183" viewBox="0 0 184 183" fill="none" xmlns="http://www.w3.org/2000/svg">
<path opacity="0.4" d="M92 167.75C134.342 167.75 168.667 133.612 168.667 91.5C168.667 49.3883 134.342 15.25 92 15.25C49.6582 15.25 15.3334 49.3883 15.3334 91.5C15.3334 133.612 49.6582 167.75 92 167.75Z" fill="#292D32"/>
<path d="M92 99.125C87.7067 99.125 84.3334 95.6938 84.3334 91.5C84.3334 87.3062 87.7834 83.875 92 83.875C96.2167 83.875 99.6667 87.3062 99.6667 91.5C99.6667 95.6938 96.2934 99.125 92 99.125Z" fill="#292D32"/>
<path d="M122.667 99.125C118.373 99.125 115 95.6938 115 91.5C115 87.3062 118.45 83.875 122.667 83.875C126.883 83.875 130.333 87.3062 130.333 91.5C130.333 95.6938 126.96 99.125 122.667 99.125Z" fill="#292D32"/>
<path d="M61.3333 99.125C57.04 99.125 53.6666 95.6938 53.6666 91.5C53.6666 87.3062 57.1166 83.875 61.3333 83.875C65.55 83.875 69 87.3062 69 91.5C69 95.6938 65.6266 99.125 61.3333 99.125Z" fill="#292D32"/>
</svg>
