<svg width="50" height="50" viewBox="0 0 50 50" fill="none" xmlns="http://www.w3.org/2000/svg">
<path d="M23.0469 9.375H9.375C8.339 9.375 7.34543 9.78655 6.61286 10.5191C5.8803 11.2517 5.46875 12.2452 5.46875 13.2812V40.625C5.46875 41.661 5.8803 42.6546 6.61286 43.3871C7.34543 44.1197 8.339 44.5312 9.375 44.5312H36.7188C37.7548 44.5312 38.7483 44.1197 39.4809 43.3871C40.2134 42.6546 40.625 41.661 40.625 40.625V26.9531" stroke="#D9D9D9" stroke-linecap="round" stroke-linejoin="round"/>
<path d="M37.6953 6.44496C38.4723 5.66796 39.5262 5.23145 40.625 5.23145C41.7238 5.23145 42.7777 5.66796 43.5547 6.44496C44.3317 7.22196 44.7682 8.2758 44.7682 9.37465C44.7682 10.4735 44.3317 11.5273 43.5547 12.3043L25 30.859L17.1875 32.8121L19.1406 24.9996L37.6953 6.44496Z" stroke="#D9D9D9" stroke-linecap="round" stroke-linejoin="round"/>
</svg>
