<svg width="50" height="50" viewBox="0 0 50 50" fill="none" xmlns="http://www.w3.org/2000/svg">
<path d="M17.1875 42.5781C17.1875 43.0961 17.3933 43.5929 17.7596 43.9592C18.1258 44.3255 18.6226 44.5312 19.1406 44.5312C19.6586 44.5312 20.1554 44.3255 20.5217 43.9592C20.888 43.5929 21.0938 43.0961 21.0938 42.5781C21.0938 42.0601 20.888 41.5633 20.5217 41.1971C20.1554 40.8308 19.6586 40.625 19.1406 40.625C18.6226 40.625 18.1258 40.8308 17.7596 41.1971C17.3933 41.5633 17.1875 42.0601 17.1875 42.5781Z" stroke="#D9D9D9" stroke-linecap="round" stroke-linejoin="round"/>
<path d="M38.6719 42.5781C38.6719 43.0961 38.8776 43.5929 39.2439 43.9592C39.6102 44.3255 40.107 44.5312 40.625 44.5312C41.143 44.5312 41.6398 44.3255 42.0061 43.9592C42.3724 43.5929 42.5781 43.0961 42.5781 42.5781C42.5781 42.0601 42.3724 41.5633 42.0061 41.1971C41.6398 40.8308 41.143 40.625 40.625 40.625C40.107 40.625 39.6102 40.8308 39.2439 41.1971C38.8776 41.5633 38.6719 42.0601 38.6719 42.5781Z" stroke="#D9D9D9" stroke-linecap="round" stroke-linejoin="round"/>
<path d="M3.51562 3.51562H11.3281L16.5625 29.668C16.7411 30.5672 17.2303 31.3749 17.9444 31.9498C18.6586 32.5247 19.5521 32.8301 20.4688 32.8125H39.4531C40.3697 32.8301 41.2633 32.5247 41.9775 31.9498C42.6916 31.3749 43.1808 30.5672 43.3594 29.668L46.4844 13.2812H13.2812" stroke="#D9D9D9" stroke-linecap="round" stroke-linejoin="round"/>
</svg>
