<svg width="23" height="22" viewBox="0 0 23 22" fill="none" xmlns="http://www.w3.org/2000/svg">
<g clip-path="url(#clip0_10_49323)">
<path fill-rule="evenodd" clip-rule="evenodd" d="M12.6349 14.3983C12.463 14.5702 12.2299 14.6667 11.9868 14.6667C11.7437 14.6667 11.5106 14.5702 11.3387 14.3983L6.15314 9.21273C6.06559 9.12817 5.99575 9.02702 5.94771 8.91519C5.89967 8.80335 5.87438 8.68307 5.87333 8.56135C5.87227 8.43964 5.89546 8.31893 5.94155 8.20628C5.98764 8.09362 6.05571 7.99127 6.14178 7.9052C6.22785 7.81914 6.33019 7.75107 6.44285 7.70498C6.5555 7.65889 6.67621 7.6357 6.79792 7.63675C6.91964 7.63781 7.03992 7.6631 7.15176 7.71114C7.2636 7.75918 7.36475 7.82902 7.44931 7.91657L11.9868 12.4541L16.5243 7.91657C16.6972 7.74959 16.9287 7.65719 17.1691 7.65928C17.4094 7.66137 17.6394 7.75777 17.8093 7.92773C17.9793 8.09769 18.0757 8.3276 18.0778 8.56795C18.0798 8.8083 17.9875 9.03985 17.8205 9.21273L12.6349 14.3983Z" fill="#FF3B30"/>
</g>
<defs>
<clipPath id="clip0_10_49323">
<rect width="22" height="22" fill="white" transform="translate(0.986816)"/>
</clipPath>
</defs>
</svg>
