<svg width="50" height="50" viewBox="0 0 50 50" fill="none" xmlns="http://www.w3.org/2000/svg">
<path d="M23.0469 25C23.0469 25.518 23.2527 26.0148 23.6189 26.3811C23.9852 26.7473 24.482 26.9531 25 26.9531C25.518 26.9531 26.0148 26.7473 26.3811 26.3811C26.7473 26.0148 26.9531 25.518 26.9531 25C26.9531 24.482 26.7473 23.9852 26.3811 23.6189C26.0148 23.2527 25.518 23.0469 25 23.0469C24.482 23.0469 23.9852 23.2527 23.6189 23.6189C23.2527 23.9852 23.0469 24.482 23.0469 25Z" stroke="#D9D9D9" stroke-linecap="round" stroke-linejoin="round"/>
<path d="M23.0469 11.3281C23.0469 11.8461 23.2527 12.3429 23.6189 12.7092C23.9852 13.0755 24.482 13.2812 25 13.2812C25.518 13.2812 26.0148 13.0755 26.3811 12.7092C26.7473 12.3429 26.9531 11.8461 26.9531 11.3281C26.9531 10.8101 26.7473 10.3133 26.3811 9.94706C26.0148 9.58078 25.518 9.375 25 9.375C24.482 9.375 23.9852 9.58078 23.6189 9.94706C23.2527 10.3133 23.0469 10.8101 23.0469 11.3281Z" stroke="#D9D9D9" stroke-linecap="round" stroke-linejoin="round"/>
<path d="M23.0469 38.6719C23.0469 39.1899 23.2527 39.6867 23.6189 40.0529C23.9852 40.4192 24.482 40.625 25 40.625C25.518 40.625 26.0148 40.4192 26.3811 40.0529C26.7473 39.6867 26.9531 39.1899 26.9531 38.6719C26.9531 38.1539 26.7473 37.6571 26.3811 37.2908C26.0148 36.9245 25.518 36.7188 25 36.7188C24.482 36.7188 23.9852 36.9245 23.6189 37.2908C23.2527 37.6571 23.0469 38.1539 23.0469 38.6719Z" stroke="#D9D9D9" stroke-linecap="round" stroke-linejoin="round"/>
</svg>
