<svg width="52" height="52" viewBox="0 0 52 52" fill="none" xmlns="http://www.w3.org/2000/svg">
<path d="M5.58998 41.1884L5.54665 41.2318C4.96165 39.9534 4.59332 38.5018 4.44165 36.8984C4.59332 38.4801 5.00498 39.9101 5.58998 41.1884Z" fill="#292D32"/>
<path d="M19.5001 22.4901C22.348 22.4901 24.6567 20.1814 24.6567 17.3334C24.6567 14.4855 22.348 12.1768 19.5001 12.1768C16.6521 12.1768 14.3434 14.4855 14.3434 17.3334C14.3434 20.1814 16.6521 22.4901 19.5001 22.4901Z" fill="#292D32"/>
<path d="M35.0784 4.33301H16.9217C9.03504 4.33301 4.33337 9.03467 4.33337 16.9213V35.078C4.33337 37.4397 4.74504 39.498 5.54671 41.2313C7.41004 45.348 11.3967 47.6663 16.9217 47.6663H35.0784C42.965 47.6663 47.6667 42.9647 47.6667 35.078V30.1163V16.9213C47.6667 9.03467 42.965 4.33301 35.0784 4.33301ZM44.135 27.083C42.445 25.6313 39.715 25.6313 38.025 27.083L29.0117 34.818C27.3217 36.2697 24.5917 36.2697 22.9017 34.818L22.165 34.2113C20.6267 32.868 18.1784 32.738 16.445 33.908L8.34171 39.3463C7.86504 38.133 7.58337 36.7247 7.58337 35.078V16.9213C7.58337 10.8113 10.8117 7.58301 16.9217 7.58301H35.0784C41.1884 7.58301 44.4167 10.8113 44.4167 16.9213V27.3213L44.135 27.083Z" fill="#292D32"/>
</svg>
