<svg width="54" height="54" viewBox="0 0 54 54" fill="none" xmlns="http://www.w3.org/2000/svg">
<path d="M37.6875 8.01V4.5C37.6875 3.5775 36.9225 2.8125 36 2.8125C35.0775 2.8125 34.3125 3.5775 34.3125 4.5V7.875H19.6875V4.5C19.6875 3.5775 18.9225 2.8125 18 2.8125C17.0775 2.8125 16.3125 3.5775 16.3125 4.5V8.01C10.2375 8.5725 7.29003 12.195 6.84003 17.5725C6.79503 18.225 7.33503 18.765 7.96503 18.765H46.035C46.6875 18.765 47.2275 18.2025 47.16 17.5725C46.71 12.195 43.7625 8.5725 37.6875 8.01Z" fill="#292D32"/>
<path d="M45 22.1401H9C7.7625 22.1401 6.75 23.1526 6.75 24.3901V38.2501C6.75 45.0001 10.125 49.5001 18 49.5001H36C43.875 49.5001 47.25 45.0001 47.25 38.2501V24.3901C47.25 23.1526 46.2375 22.1401 45 22.1401ZM20.7225 40.9726C20.61 41.0626 20.4975 41.1751 20.385 41.2426C20.25 41.3326 20.115 41.4001 19.98 41.4451C19.845 41.5126 19.71 41.5576 19.575 41.5801C19.4175 41.6026 19.2825 41.6251 19.125 41.6251C18.8325 41.6251 18.54 41.5576 18.27 41.4451C17.9775 41.3326 17.7525 41.1751 17.5275 40.9726C17.1225 40.5451 16.875 39.9601 16.875 39.3751C16.875 38.7901 17.1225 38.2051 17.5275 37.7776C17.7525 37.5751 17.9775 37.4176 18.27 37.3051C18.675 37.1251 19.125 37.0801 19.575 37.1701C19.71 37.1926 19.845 37.2376 19.98 37.3051C20.115 37.3501 20.25 37.4176 20.385 37.5076C20.4975 37.5976 20.61 37.6876 20.7225 37.7776C21.1275 38.2051 21.375 38.7901 21.375 39.3751C21.375 39.9601 21.1275 40.5451 20.7225 40.9726ZM20.7225 33.0976C20.295 33.5026 19.71 33.7501 19.125 33.7501C18.54 33.7501 17.955 33.5026 17.5275 33.0976C17.1225 32.6701 16.875 32.0851 16.875 31.5001C16.875 30.9151 17.1225 30.3301 17.5275 29.9026C18.1575 29.2726 19.1475 29.0701 19.98 29.4301C20.2725 29.5426 20.52 29.7001 20.7225 29.9026C21.1275 30.3301 21.375 30.9151 21.375 31.5001C21.375 32.0851 21.1275 32.6701 20.7225 33.0976ZM28.5975 40.9726C28.17 41.3776 27.585 41.6251 27 41.6251C26.415 41.6251 25.83 41.3776 25.4025 40.9726C24.9975 40.5451 24.75 39.9601 24.75 39.3751C24.75 38.7901 24.9975 38.2051 25.4025 37.7776C26.235 36.9451 27.765 36.9451 28.5975 37.7776C29.0025 38.2051 29.25 38.7901 29.25 39.3751C29.25 39.9601 29.0025 40.5451 28.5975 40.9726ZM28.5975 33.0976C28.485 33.1876 28.3725 33.2776 28.26 33.3676C28.125 33.4576 27.99 33.5251 27.855 33.5701C27.72 33.6376 27.585 33.6826 27.45 33.7051C27.2925 33.7276 27.1575 33.7501 27 33.7501C26.415 33.7501 25.83 33.5026 25.4025 33.0976C24.9975 32.6701 24.75 32.0851 24.75 31.5001C24.75 30.9151 24.9975 30.3301 25.4025 29.9026C25.605 29.7001 25.8525 29.5426 26.145 29.4301C26.9775 29.0701 27.9675 29.2726 28.5975 29.9026C29.0025 30.3301 29.25 30.9151 29.25 31.5001C29.25 32.0851 29.0025 32.6701 28.5975 33.0976ZM36.4725 40.9726C36.045 41.3776 35.46 41.6251 34.875 41.6251C34.29 41.6251 33.705 41.3776 33.2775 40.9726C32.8725 40.5451 32.625 39.9601 32.625 39.3751C32.625 38.7901 32.8725 38.2051 33.2775 37.7776C34.11 36.9451 35.64 36.9451 36.4725 37.7776C36.8775 38.2051 37.125 38.7901 37.125 39.3751C37.125 39.9601 36.8775 40.5451 36.4725 40.9726ZM36.4725 33.0976C36.36 33.1876 36.2475 33.2776 36.135 33.3676C36 33.4576 35.865 33.5251 35.73 33.5701C35.595 33.6376 35.46 33.6826 35.325 33.7051C35.1675 33.7276 35.01 33.7501 34.875 33.7501C34.29 33.7501 33.705 33.5026 33.2775 33.0976C32.8725 32.6701 32.625 32.0851 32.625 31.5001C32.625 30.9151 32.8725 30.3301 33.2775 29.9026C33.5025 29.7001 33.7275 29.5426 34.02 29.4301C34.425 29.2501 34.875 29.2051 35.325 29.2951C35.46 29.3176 35.595 29.3626 35.73 29.4301C35.865 29.4751 36 29.5426 36.135 29.6326C36.2475 29.7226 36.36 29.8126 36.4725 29.9026C36.8775 30.3301 37.125 30.9151 37.125 31.5001C37.125 32.0851 36.8775 32.6701 36.4725 33.0976Z" fill="#292D32"/>
</svg>
