<svg width="54" height="54" viewBox="0 0 54 54" fill="none" xmlns="http://www.w3.org/2000/svg">
<path d="M36 4.5H18C11.79 4.5 6.75 9.54 6.75 15.75V38.25C6.75 44.46 11.79 49.5 18 49.5H36C42.21 49.5 47.25 44.46 47.25 38.25V15.75C47.25 9.54 42.21 4.5 36 4.5ZM19.935 41.9175C19.5075 42.345 18.945 42.57 18.36 42.57C17.7525 42.57 17.19 42.345 16.7625 41.9175C16.335 41.49 16.0875 40.9275 16.0875 40.32C16.0875 39.735 16.335 39.15 16.7625 38.7225C16.965 38.52 17.2125 38.3625 17.4825 38.25C18.045 38.025 18.6525 38.025 19.215 38.25C19.35 38.295 19.485 38.3625 19.5975 38.4525C19.7325 38.52 19.845 38.6325 19.935 38.7225C20.3625 39.15 20.61 39.735 20.61 40.32C20.61 40.9275 20.3625 41.49 19.935 41.9175ZM16.0875 31.32C16.0875 31.0275 16.155 30.735 16.2675 30.465C16.38 30.1725 16.5375 29.9475 16.7625 29.7225C17.28 29.205 18.0675 28.9575 18.7875 29.115C18.9225 29.1375 19.08 29.1825 19.215 29.25C19.35 29.295 19.485 29.3625 19.5975 29.4525C19.7325 29.52 19.845 29.6325 19.935 29.7225C20.1375 29.9475 20.3175 30.1725 20.43 30.465C20.5425 30.735 20.5875 31.0275 20.5875 31.32C20.5875 31.9275 20.3625 32.49 19.935 32.9175C19.5075 33.345 18.945 33.57 18.36 33.57C18.045 33.57 17.7525 33.5025 17.4825 33.39C17.2125 33.2775 16.965 33.12 16.7625 32.9175C16.335 32.49 16.0875 31.9275 16.0875 31.32ZM28.935 41.9175C28.7325 42.12 28.485 42.2775 28.215 42.39C27.945 42.5025 27.6525 42.57 27.3375 42.57C26.7525 42.57 26.19 42.345 25.7625 41.9175C25.335 41.49 25.0875 40.9275 25.0875 40.32C25.0875 40.1625 25.11 40.0275 25.1325 39.87C25.1775 39.735 25.2225 39.6 25.2675 39.465C25.335 39.33 25.4025 39.195 25.47 39.06C25.56 38.9475 25.65 38.835 25.7625 38.7225C25.965 38.52 26.2125 38.3625 26.4825 38.25C27.315 37.9125 28.305 38.0925 28.935 38.7225C29.3625 39.15 29.5875 39.735 29.5875 40.32C29.5875 40.9275 29.3625 41.49 28.935 41.9175ZM28.935 32.9175C28.5075 33.345 27.945 33.57 27.3375 33.57C26.7525 33.57 26.19 33.345 25.7625 32.9175C25.335 32.49 25.0875 31.9275 25.0875 31.32C25.0875 30.735 25.335 30.15 25.7625 29.7225C26.595 28.89 28.1025 28.89 28.935 29.7225C29.1375 29.9475 29.3175 30.1725 29.43 30.465C29.5425 30.735 29.5875 31.0275 29.5875 31.32C29.5875 31.9275 29.3625 32.49 28.935 32.9175ZM20.25 23.535C17.9325 23.535 16.02 21.645 16.02 19.305V17.055C16.02 14.7375 17.91 12.825 20.25 12.825H33.75C36.0675 12.825 37.98 14.715 37.98 17.055V19.305C37.98 21.6225 36.09 23.535 33.75 23.535H20.25ZM37.935 41.9175C37.5075 42.345 36.945 42.57 36.3375 42.57C36.045 42.57 35.7525 42.5025 35.4825 42.39C35.2125 42.2775 34.965 42.12 34.7625 41.9175C34.335 41.49 34.11 40.9275 34.11 40.32C34.11 39.735 34.335 39.15 34.7625 38.7225C35.37 38.0925 36.3825 37.9125 37.215 38.25C37.485 38.3625 37.7325 38.52 37.935 38.7225C38.3625 39.15 38.5875 39.735 38.5875 40.32C38.5875 40.9275 38.3625 41.49 37.935 41.9175ZM38.43 32.175C38.3175 32.445 38.16 32.6925 37.935 32.9175C37.5075 33.345 36.945 33.57 36.3375 33.57C35.7525 33.57 35.19 33.345 34.7625 32.9175C34.335 32.49 34.0875 31.9275 34.0875 31.32C34.0875 30.735 34.335 30.15 34.7625 29.7225C35.595 28.89 37.1025 28.89 37.935 29.7225C38.3625 30.15 38.61 30.735 38.61 31.32C38.61 31.6125 38.5425 31.905 38.43 32.175Z" fill="#292D32"/>
</svg>
