<svg width="54" height="54" viewBox="0 0 54 54" fill="none" xmlns="http://www.w3.org/2000/svg">
<g clip-path="url(#clip0_10_51019)">
<path d="M46.395 19.0125C44.0325 8.6175 34.965 3.9375 27 3.9375C27 3.9375 27 3.9375 26.9775 3.9375C19.035 3.9375 9.94497 8.595 7.58247 18.99C4.94997 30.6 12.06 40.4325 18.495 46.62C20.88 48.915 23.94 50.0625 27 50.0625C30.06 50.0625 33.12 48.915 35.4825 46.62C41.9175 40.4325 49.0275 30.6225 46.395 19.0125ZM27 30.285C23.085 30.285 19.9125 27.1125 19.9125 23.1975C19.9125 19.2825 23.085 16.11 27 16.11C30.915 16.11 34.0875 19.2825 34.0875 23.1975C34.0875 27.1125 30.915 30.285 27 30.285Z" fill="#292D32"/>
</g>
<defs>
<clipPath id="clip0_10_51019">
<rect width="54" height="54" fill="white"/>
</clipPath>
</defs>
</svg>
