<svg width="79" height="83" viewBox="0 0 79 83" fill="none" xmlns="http://www.w3.org/2000/svg">
<rect width="79" height="83" fill="#42C5D9" fill-opacity="0.97"/>
<path d="M75.7084 10.3746C72.5563 12.7106 69.0662 14.4973 65.3726 15.6659C63.3902 13.271 60.7555 11.5736 57.8249 10.8032C54.8943 10.0328 51.8093 10.2266 48.9869 11.3584C46.1646 12.4901 43.7412 14.5053 42.0445 17.1312C40.3478 19.7572 39.4596 22.8673 39.5001 26.0409V29.4992C33.7154 29.6568 27.9834 28.3089 22.8147 25.5755C17.6459 22.8422 13.2007 18.8082 9.87508 13.833C9.87508 13.833 -3.29159 44.958 26.3334 58.7913C19.5543 63.6259 11.4786 66.0501 3.29175 65.708C32.9168 82.9996 69.1251 65.708 69.1251 25.9371C69.1221 24.9738 69.0339 24.0129 68.8618 23.0667C72.2212 19.5859 74.592 15.1911 75.7084 10.3746Z" stroke="#F3F3F3" stroke-width="4" stroke-linecap="round" stroke-linejoin="round"/>
</svg>
