<svg width="61" height="61" viewBox="0 0 61 61" fill="none" xmlns="http://www.w3.org/2000/svg">
<circle opacity="0.6" cx="30.5" cy="30.0801" r="30" fill="black"/>
<path d="M41.7072 23.6516C40.8822 24.0266 39.9929 24.2731 39.0715 24.3909C40.0143 23.8231 40.7429 22.9231 41.0858 21.8409C40.1965 22.3766 39.2108 22.7516 38.1715 22.9659C37.325 22.0445 36.1358 21.5088 34.7858 21.5088C32.2679 21.5088 30.2108 23.5659 30.2108 26.1052C30.2108 26.4695 30.2536 26.8231 30.3286 27.1552C26.5143 26.9624 23.1179 25.1302 20.8572 22.3552C20.4608 23.0302 20.2358 23.8231 20.2358 24.6588C20.2358 26.2552 21.0393 27.6695 22.2822 28.4731C21.5215 28.4731 20.8143 28.2588 20.1929 27.9374V27.9695C20.1929 30.1981 21.7786 32.0624 23.8786 32.4802C23.2045 32.6655 22.4965 32.6912 21.8108 32.5552C22.1018 33.4686 22.6717 34.2678 23.4404 34.8405C24.2092 35.4132 25.138 35.7306 26.0965 35.7481C24.4718 37.0343 22.4579 37.7296 20.3858 37.7195C20.0215 37.7195 19.6572 37.6981 19.2929 37.6552C21.3286 38.9624 23.7501 39.7231 26.3429 39.7231C34.7858 39.7231 39.4251 32.7159 39.4251 26.6409C39.4251 26.4374 39.425 26.2445 39.4143 26.0409C40.3143 25.3981 41.0858 24.5838 41.7072 23.6516Z" fill="white"/>
</svg>
