<svg width="20" height="26" viewBox="0 0 20 26" fill="none" xmlns="http://www.w3.org/2000/svg">
<path d="M10.1895 25.143C11.6444 25.143 12.8245 23.7387 12.8245 22.006H7.55441C7.55441 23.7387 8.73457 25.143 10.1895 25.143ZM19.0619 17.8049C18.266 16.7873 16.7769 15.2565 16.7769 10.2422C16.7769 6.43365 14.5328 3.38486 11.5068 2.63688V1.61538C11.5068 0.749273 10.9169 0.046875 10.1895 0.046875C9.46202 0.046875 8.87215 0.749273 8.87215 1.61538V2.63688C5.84617 3.38486 3.60202 6.43365 3.60202 10.2422C3.60202 15.2565 2.11293 16.7873 1.3171 17.8049C1.06994 18.121 0.960371 18.4989 0.962431 18.869C0.966962 19.6728 1.4971 20.4375 2.2847 20.4375H18.0942C18.8818 20.4375 19.4124 19.6728 19.4165 18.869C19.4186 18.4989 19.309 18.1205 19.0619 17.8049Z" fill="#343A40"/>
</svg>
