<svg width="22" height="26" viewBox="0 0 22 26" fill="none" xmlns="http://www.w3.org/2000/svg">
<path d="M18.988 19.7649C18.4796 19.1743 17.9848 18.5667 17.5042 17.9428C17.1004 17.4451 16.8573 17.0831 16.8573 17.0831L13.818 15.3228C15.0348 13.649 15.7063 11.4943 15.7067 9.26275C15.7067 4.18217 12.2983 0.046875 8.10846 0.046875C3.91859 0.046875 0.510254 4.18217 0.510254 9.26275C0.510254 14.3433 3.91859 18.4786 8.10846 18.4786C10.0221 18.4786 11.7665 17.6097 13.1048 16.1891L14.5561 19.8755C14.5561 19.8755 14.8546 20.1704 15.2649 20.6602C15.685 21.1381 16.2375 21.7845 16.7672 22.4599L18.2412 24.2925L18.8968 25.143L21.1991 22.3506L20.4979 21.5554C20.0865 21.0657 19.5373 20.4153 18.988 19.7649ZM8.10846 15.8455C5.11585 15.8455 2.68117 12.8925 2.68117 9.26275C2.68117 5.63301 5.11585 2.67998 8.10846 2.67998C11.1011 2.67998 13.5358 5.63301 13.5358 9.26275C13.5358 12.8925 11.1011 15.8455 8.10846 15.8455Z" fill="#343A40"/>
</svg>
