<svg width="30" height="30" viewBox="0 0 30 30" fill="none" xmlns="http://www.w3.org/2000/svg">
<path d="M13.75 2.5H11.25C5 2.5 2.5 5 2.5 11.25V18.75C2.5 25 5 27.5 11.25 27.5H18.75C25 27.5 27.5 25 27.5 18.75V16.25" stroke="black" stroke-width="1.5" stroke-linecap="round" stroke-linejoin="round"/>
<path d="M20.05 3.77458L10.2 13.6246C9.82497 13.9996 9.44997 14.7371 9.37497 15.2746L8.83747 19.0371C8.63747 20.3996 9.59997 21.3496 10.9625 21.1621L14.725 20.6246C15.25 20.5496 15.9875 20.1746 16.375 19.7996L26.225 9.94958C27.925 8.24958 28.725 6.27458 26.225 3.77458C23.725 1.27458 21.75 2.07458 20.05 3.77458Z" stroke="black" stroke-width="1.5" stroke-miterlimit="10" stroke-linecap="round" stroke-linejoin="round"/>
<path d="M18.6375 5.1875C19.475 8.175 21.8125 10.5125 24.8125 11.3625" stroke="black" stroke-width="1.5" stroke-miterlimit="10" stroke-linecap="round" stroke-linejoin="round"/>
</svg>
