<svg width="33" height="33" viewBox="0 0 33 33" fill="none" xmlns="http://www.w3.org/2000/svg">
<path d="M6.875 28.875H26.125C27.6438 28.875 28.875 27.6438 28.875 26.125V6.875C28.875 5.35622 27.6438 4.125 26.125 4.125H6.875C5.35622 4.125 4.125 5.35622 4.125 6.875V26.125C4.125 27.6438 5.35622 28.875 6.875 28.875ZM6.875 28.875L22 13.75L28.875 20.625M13.75 11.6875C13.75 12.8266 12.8266 13.75 11.6875 13.75C10.5484 13.75 9.625 12.8266 9.625 11.6875C9.625 10.5484 10.5484 9.625 11.6875 9.625C12.8266 9.625 13.75 10.5484 13.75 11.6875Z" stroke="#1E1E1E" stroke-width="4" stroke-linecap="round" stroke-linejoin="round"/>
</svg>
